<svg width="24" height="24" viewBox="0 0 24 24" fill="none" xmlns="http://www.w3.org/2000/svg">
<path d="M17.4444 11H6.55556C5.69645 11 5 11.8954 5 13V20C5 21.1046 5.69645 22 6.55556 22H17.4444C18.3036 22 19 21.1046 19 20V13C19 11.8954 18.3036 11 17.4444 11Z" stroke="white" stroke-width="2" stroke-linecap="round" stroke-linejoin="round"/>
<path d="M7 11V7.44444C7 6.2657 7.52678 5.13524 8.46447 4.30175C9.40215 3.46825 10.6739 3 12 3C13.3261 3 14.5979 3.46825 15.5355 4.30175C16.4732 5.13524 17 6.2657 17 7.44444V11" stroke="white" stroke-width="2" stroke-linecap="round" stroke-linejoin="round"/>
</svg>
